<svg width="91" height="99" viewBox="0 0 91 99" fill="none" xmlns="http://www.w3.org/2000/svg">
<g filter="url(#filter0_d_4042_45942)">
<path d="M22.1629 31.5811L40.2787 21.1235C42.3571 19.923 44.9185 19.923 46.9969 21.1235L65.111 31.5811C67.1894 32.7816 68.471 34.9997 68.471 37.4007V58.3176C68.471 60.7185 67.1912 62.9367 65.111 64.1371L46.9969 74.5947C44.9185 75.7952 42.3571 75.7952 40.2787 74.5947L22.1646 64.1371C20.0862 62.9367 18.8047 60.7185 18.8047 58.3176V37.4007C18.8047 34.9997 20.0845 32.7816 22.1646 31.5811H22.1629Z" fill="url(#paint0_linear_4042_45942)"/>
</g>
<path d="M59.914 26.3858L70.3716 44.4999C71.5721 46.5783 71.5721 49.1397 70.3716 51.2181L59.914 69.3322C58.7135 71.4106 56.4954 72.6922 54.0944 72.6922H33.1775C30.7766 72.6922 28.5584 71.4123 27.358 69.3322L16.9004 51.2181C15.6999 49.1397 15.6999 46.5783 16.9004 44.4999L27.358 26.3858C28.5584 24.3074 30.7766 23.0259 33.1775 23.0259H54.0944C56.4954 23.0259 58.7135 24.3057 59.914 26.3858Z" fill="url(#paint1_linear_4042_45942)"/>
<path d="M59.914 26.3858L70.3716 44.4999C71.5721 46.5783 71.5721 49.1397 70.3716 51.2181L59.914 69.3322C58.7135 71.4106 56.4954 72.6922 54.0944 72.6922H33.1775C30.7766 72.6922 28.5584 71.4123 27.358 69.3322L16.9004 51.2181C15.6999 49.1397 15.6999 46.5783 16.9004 44.4999L27.358 26.3858C28.5584 24.3074 30.7766 23.0259 33.1775 23.0259H54.0944C56.4954 23.0259 58.7135 24.3057 59.914 26.3858Z" fill="white" fill-opacity="0.59"/>
<g filter="url(#filter1_d_4042_45942)">
<path d="M33.1796 70.9912C31.3926 70.9912 29.7282 70.0305 28.8347 68.4833L18.3771 50.3692C17.4837 48.822 17.4837 46.9006 18.3771 45.3534L28.8347 27.2393C29.7282 25.6922 31.3926 24.7314 33.1796 24.7314H54.0965C55.8834 24.7314 57.5479 25.6922 58.4413 27.2393L68.8989 45.3534C69.7924 46.9006 69.7924 48.822 68.8989 50.3692L58.4413 68.4833C57.5479 70.0305 55.8834 70.9912 54.0965 70.9912H33.1796Z" fill="#ECFAFB"/>
</g>
<path d="M56.9858 28.1279L56.9634 28.0882C56.3735 27.0654 55.2731 26.4307 54.0933 26.4307H33.1764C31.9966 26.4307 30.8962 27.0654 30.3063 28.0882L19.8487 46.2023C19.2588 47.2251 19.2588 48.4946 19.8487 49.5174L23.5122 55.863C26.9084 40.3189 40.5379 28.6005 56.9858 28.1279Z" fill="url(#paint2_linear_4042_45942)" style="mix-blend-mode:screen"/>
<path opacity="0.8" d="M49.5969 23.2322C49.5969 23.3202 45.8299 23.3926 41.1832 23.3926C36.5365 23.3926 32.7695 23.3219 32.7695 23.2322C32.7695 23.1425 36.5365 23.0718 41.1832 23.0718C45.8299 23.0718 49.5969 23.1425 49.5969 23.2322Z" fill="url(#paint3_radial_4042_45942)" style="mix-blend-mode:screen"/>
<path opacity="0.8" d="M49.5969 72.3245C49.5969 72.4124 45.8299 72.4849 41.1832 72.4849C36.5365 72.4849 32.7695 72.4142 32.7695 72.3245C32.7695 72.2348 36.5365 72.1641 41.1832 72.1641C45.8299 72.1641 49.5969 72.2348 49.5969 72.3245Z" fill="url(#paint4_radial_4042_45942)" style="mix-blend-mode:screen"/>
<g filter="url(#filter2_d_4042_45942)">
<path d="M45.6147 55.7072C45.1414 55.7072 44.7004 55.4496 44.4638 55.0349L43.8442 53.9492C43.7452 53.7758 43.6866 53.5833 43.6706 53.3864H40.0121C39.7402 53.3864 39.5199 53.1634 39.5199 52.8884C39.5199 52.6134 39.7402 52.3904 40.0121 52.3904H43.9961C44.0174 52.3658 44.0396 52.3419 44.0628 52.3188C44.042 52.1347 44.0315 51.9489 44.0315 51.7634C44.0315 51.6382 44.0367 51.513 44.0461 51.3883H40.0121C39.7402 51.3883 39.5199 51.1653 39.5199 50.8903C39.5199 50.6153 39.7402 50.3923 40.0121 50.3923H43.6739C43.6443 50.1104 43.7033 49.8247 43.8442 49.5777L44.0907 49.1457H37V54.3987C37 55.4055 37.8096 56.2247 38.8048 56.2247H45.8598C46.1249 56.2247 46.3766 56.1661 46.6035 56.0618C46.3823 55.9446 46.1702 55.8103 45.9687 55.6586C45.8536 55.6909 45.735 55.7072 45.6147 55.7072Z" fill="url(#paint5_linear_4042_45942)"/>
<path d="M43.9891 40.4539L44.2608 39.2256H40.4029L40.6745 40.4539H43.9891Z" fill="url(#paint6_linear_4042_45942)"/>
<path d="M45.8598 39.2256H45.27L44.8641 41.0607C44.8138 41.2882 44.6142 41.4499 44.3838 41.4499H40.2807C40.0503 41.4499 39.8507 41.2882 39.8004 41.0607L39.3945 39.2256H38.8048C37.8096 39.2256 37 40.0447 37 41.0516V48.1488H44.7433C44.9819 47.9395 45.2907 47.8187 45.6148 47.8187C45.7351 47.8187 45.8536 47.835 45.9687 47.8673C46.2643 47.6447 46.5823 47.4586 46.9196 47.3109C46.9879 47.0459 47.1351 46.8068 47.3423 46.6276C47.4401 46.5431 47.5488 46.4744 47.6646 46.4222V41.0516C47.6646 40.0447 46.855 39.2256 45.8598 39.2256ZM40.0119 43.9073C40.2838 43.9073 40.5041 44.1302 40.5041 44.4053C40.5041 44.6803 40.2838 44.9033 40.0119 44.9033C39.7401 44.9033 39.5197 44.6803 39.5197 44.4053C39.5197 44.1302 39.7401 43.9073 40.0119 43.9073ZM44.6525 46.9013H40.0121C39.7402 46.9013 39.5199 46.6784 39.5199 46.4033C39.5199 46.1283 39.7402 45.9053 40.0121 45.9053H44.6525C44.9243 45.9053 45.1447 46.1283 45.1447 46.4033C45.1447 46.6784 44.9243 46.9013 44.6525 46.9013ZM44.6525 44.9033H41.992C41.7202 44.9033 41.4998 44.6803 41.4998 44.4053C41.4998 44.1302 41.7202 43.9073 41.992 43.9073H44.6525C44.9243 43.9073 45.1447 44.1302 45.1447 44.4053C45.1447 44.6803 44.9243 44.9033 44.6525 44.9033Z" fill="url(#paint7_linear_4042_45942)"/>
<path d="M52.6836 50.6761L52.8722 50.5218C53.0039 50.4139 53.0386 50.2251 52.9538 50.0766L52.3342 48.9908C52.2712 48.8802 52.1559 48.8165 52.0358 48.8165C51.9503 48.8096 51.766 48.901 51.6851 48.9281C51.5677 48.974 51.4323 48.9518 51.3366 48.8667C50.9645 48.5362 50.5283 48.278 50.0492 48.1136C49.9292 48.0725 49.8427 47.9659 49.8229 47.8392L49.7851 47.5972C49.7587 47.4279 49.6144 47.3031 49.4449 47.3031H48.2057C48.0362 47.3031 47.8919 47.4279 47.8655 47.5972L47.8277 47.8392C47.808 47.9659 47.7215 48.0725 47.6015 48.1136C47.1224 48.278 46.6862 48.5362 46.314 48.8667C46.2183 48.9518 46.083 48.974 45.9656 48.9282C45.8838 48.9008 45.7014 48.8099 45.6149 48.8165C45.4948 48.8165 45.3796 48.8803 45.3165 48.9908L44.6969 50.0766C44.6121 50.2251 44.6467 50.414 44.7785 50.5218L44.9671 50.6761C45.0657 50.7568 45.1134 50.886 45.0887 51.0118C45.0411 51.2552 45.016 51.5068 45.016 51.7643C45.016 52.0219 45.0411 52.2735 45.0887 52.5168C45.1134 52.6427 45.0657 52.7719 44.9671 52.8526L44.7785 53.0069C44.6467 53.1148 44.6121 53.3036 44.6969 53.4521L45.3165 54.5379C45.3795 54.6484 45.4948 54.7122 45.6149 54.7122C45.7004 54.7191 45.8847 54.6277 45.9656 54.6005C46.083 54.5547 46.2184 54.5769 46.3141 54.662C46.6862 54.9924 47.1224 55.2507 47.6015 55.4151C47.7215 55.4562 47.808 55.5628 47.8278 55.6894L47.8655 55.9314C47.892 56.1008 48.0363 56.2256 48.2058 56.2256H49.445C49.6144 56.2256 49.7588 56.1008 49.7852 55.9314L49.8229 55.6894C49.8427 55.5628 49.9292 55.4562 50.0492 55.4151C50.5283 55.2507 50.9645 54.9925 51.3367 54.662C51.4323 54.5769 51.5677 54.5547 51.6851 54.6005L51.9123 54.6889C52.0674 54.75 52.2494 54.6876 52.3342 54.5379L52.9538 53.4521C53.0386 53.3036 53.0039 53.1147 52.8722 53.0069L52.6836 52.8526C52.585 52.7719 52.5373 52.6427 52.562 52.5168C52.6096 52.2735 52.6346 52.0219 52.6346 51.7643C52.6346 51.5068 52.6096 51.2552 52.562 51.0118C52.5373 50.8859 52.585 50.7568 52.6836 50.6761ZM48.8253 53.7128C47.7634 53.7128 46.8994 52.8386 46.8994 51.7643C46.8994 50.6899 47.7634 49.8158 48.8253 49.8158C49.8872 49.8158 50.7512 50.6899 50.7512 51.7643C50.7512 52.8386 49.8872 53.7128 48.8253 53.7128Z" fill="url(#paint8_linear_4042_45942)"/>
<path d="M48.8243 52.714C49.3443 52.714 49.7658 52.2875 49.7658 51.7615C49.7658 51.2354 49.3443 50.809 48.8243 50.809C48.3044 50.809 47.8829 51.2354 47.8829 51.7615C47.8829 52.2875 48.3044 52.714 48.8243 52.714Z" fill="url(#paint9_linear_4042_45942)"/>
</g>
<defs>
<filter id="filter0_d_4042_45942" x="-2.86275" y="0.000207305" width="93.0028" height="98.6068" filterUnits="userSpaceOnUse" color-interpolation-filters="sRGB">
<feFlood flood-opacity="0" result="BackgroundImageFix"/>
<feColorMatrix in="SourceAlpha" type="matrix" values="0 0 0 0 0 0 0 0 0 0 0 0 0 0 0 0 0 0 127 0" result="hardAlpha"/>
<feOffset dy="1.4445"/>
<feGaussianBlur stdDeviation="10.8337"/>
<feComposite in2="hardAlpha" operator="out"/>
<feColorMatrix type="matrix" values="0 0 0 0 0.025 0 0 0 0 0.025 0 0 0 0 0.000104167 0 0 0 0.1 0"/>
<feBlend mode="normal" in2="BackgroundImageFix" result="effect1_dropShadow_4042_45942"/>
<feBlend mode="normal" in="SourceGraphic" in2="effect1_dropShadow_4042_45942" result="shape"/>
</filter>
<filter id="filter1_d_4042_45942" x="11.867" y="24.7314" width="63.5433" height="57.9398" filterUnits="userSpaceOnUse" color-interpolation-filters="sRGB">
<feFlood flood-opacity="0" result="BackgroundImageFix"/>
<feColorMatrix in="SourceAlpha" type="matrix" values="0 0 0 0 0 0 0 0 0 0 0 0 0 0 0 0 0 0 127 0" result="hardAlpha"/>
<feOffset dy="5.84"/>
<feGaussianBlur stdDeviation="2.92"/>
<feComposite in2="hardAlpha" operator="out"/>
<feColorMatrix type="matrix" values="0 0 0 0 0 0 0 0 0 0 0 0 0 0 0 0 0 0 0.25 0"/>
<feBlend mode="normal" in2="BackgroundImageFix" result="effect1_dropShadow_4042_45942"/>
<feBlend mode="normal" in="SourceGraphic" in2="effect1_dropShadow_4042_45942" result="shape"/>
</filter>
<filter id="filter2_d_4042_45942" x="33.0271" y="39.2256" width="23.9458" height="24.9458" filterUnits="userSpaceOnUse" color-interpolation-filters="sRGB">
<feFlood flood-opacity="0" result="BackgroundImageFix"/>
<feColorMatrix in="SourceAlpha" type="matrix" values="0 0 0 0 0 0 0 0 0 0 0 0 0 0 0 0 0 0 127 0" result="hardAlpha"/>
<feOffset dy="3.97292"/>
<feGaussianBlur stdDeviation="1.98646"/>
<feComposite in2="hardAlpha" operator="out"/>
<feColorMatrix type="matrix" values="0 0 0 0 0.348958 0 0 0 0 0.8375 0 0 0 0 0.780503 0 0 0 0.27 0"/>
<feBlend mode="normal" in2="BackgroundImageFix" result="effect1_dropShadow_4042_45942"/>
<feBlend mode="normal" in="SourceGraphic" in2="effect1_dropShadow_4042_45942" result="shape"/>
</filter>
<linearGradient id="paint0_linear_4042_45942" x1="43.6378" y1="20.2231" x2="43.6378" y2="75.4951" gradientUnits="userSpaceOnUse">
<stop stop-color="#31D5CD"/>
<stop offset="1" stop-color="#49AAA6"/>
</linearGradient>
<linearGradient id="paint1_linear_4042_45942" x1="58.2081" y1="71.3313" x2="29.0673" y2="24.3902" gradientUnits="userSpaceOnUse">
<stop stop-color="#DBD8D5"/>
<stop offset="0.06" stop-color="#CCC9C7"/>
<stop offset="0.18" stop-color="#A5A3A5"/>
<stop offset="0.26" stop-color="#88868C"/>
<stop offset="0.52" stop-color="#F3F3F4"/>
<stop offset="0.58" stop-color="#E4E4E5"/>
<stop offset="0.7" stop-color="#BEBDBF"/>
<stop offset="0.87" stop-color="#817E82"/>
<stop offset="0.88" stop-color="#7E7B7F"/>
<stop offset="1" stop-color="#A6A8AA"/>
</linearGradient>
<linearGradient id="paint2_linear_4042_45942" x1="4.9117" y1="6.57105" x2="38.7044" y2="40.3638" gradientUnits="userSpaceOnUse">
<stop stop-color="white"/>
<stop offset="1"/>
</linearGradient>
<radialGradient id="paint3_radial_4042_45942" cx="0" cy="0" r="1" gradientUnits="userSpaceOnUse" gradientTransform="translate(41.1849 23.2582) scale(8.42059 0.168412)">
<stop stop-color="white"/>
<stop offset="0.14" stop-color="#E0E0E0"/>
<stop offset="0.46" stop-color="#929292"/>
<stop offset="0.92" stop-color="#171717"/>
<stop offset="1"/>
</radialGradient>
<radialGradient id="paint4_radial_4042_45942" cx="0" cy="0" r="1" gradientUnits="userSpaceOnUse" gradientTransform="translate(8.20115 72.4344) scale(8.42059 0.16841)">
<stop stop-color="white"/>
<stop offset="0.14" stop-color="#E0E0E0"/>
<stop offset="0.46" stop-color="#929292"/>
<stop offset="0.92" stop-color="#171717"/>
<stop offset="1"/>
</radialGradient>
<linearGradient id="paint5_linear_4042_45942" x1="45" y1="39.2256" x2="45" y2="56.2256" gradientUnits="userSpaceOnUse">
<stop stop-color="#31D5CD"/>
<stop offset="1" stop-color="#49AAA6"/>
</linearGradient>
<linearGradient id="paint6_linear_4042_45942" x1="45" y1="39.2256" x2="45" y2="56.2256" gradientUnits="userSpaceOnUse">
<stop stop-color="#31D5CD"/>
<stop offset="1" stop-color="#49AAA6"/>
</linearGradient>
<linearGradient id="paint7_linear_4042_45942" x1="45" y1="39.2256" x2="45" y2="56.2256" gradientUnits="userSpaceOnUse">
<stop stop-color="#31D5CD"/>
<stop offset="1" stop-color="#49AAA6"/>
</linearGradient>
<linearGradient id="paint8_linear_4042_45942" x1="45" y1="39.2256" x2="45" y2="56.2256" gradientUnits="userSpaceOnUse">
<stop stop-color="#31D5CD"/>
<stop offset="1" stop-color="#49AAA6"/>
</linearGradient>
<linearGradient id="paint9_linear_4042_45942" x1="45" y1="39.2256" x2="45" y2="56.2256" gradientUnits="userSpaceOnUse">
<stop stop-color="#31D5CD"/>
<stop offset="1" stop-color="#49AAA6"/>
</linearGradient>
</defs>
</svg>
